P2
30 39
255
0 0 196 203 202 196 184 166 0 0 0 0 0 0 0 0 0 0 0 0 0 0 0 0 0 0 0 0 251 
147 0 0 206 215 217 215 205 186 157 0 0 0 0 0 0 0 0 0 0 0 0 0 0 0 0 0 0 0 250 
163 0 200 214 221 224 222 210 194 167 0 0 0 0 0 0 0 0 0 0 0 0 0 0 0 0 0 0 247 250 
178 196 209 215 219 220 219 207 190 165 0 0 0 0 0 0 0 0 0 0 0 0 0 0 0 0 0 0 251 233 
195 205 213 215 216 217 214 199 174 151 0 0 0 0 0 0 0 0 0 0 0 0 0 0 0 0 0 0 189 150 
0 212 216 216 217 212 203 185 155 0 0 0 0 0 0 219 215 126 0 0 0 0 0 0 0 0 0 0 0 0 
0 215 215 216 215 205 189 167 0 0 0 0 0 0 0 236 241 230 243 244 254 148 0 0 0 0 0 0 0 0 
0 215 213 208 202 197 180 159 0 226 219 142 0 0 239 235 239 241 237 238 245 208 113 0 0 0 0 0 0 0 
0 214 208 199 184 176 162 0 0 232 235 229 126 0 239 232 238 235 232 234 241 222 111 0 0 0 0 0 0 0 
0 211 199 184 162 0 0 0 0 227 230 231 206 172 238 236 238 233 232 232 240 209 108 0 0 0 0 0 0 0 
0 203 186 167 0 0 0 0 0 230 225 225 225 187 233 234 239 230 232 232 241 173 110 0 0 0 0 0 0 0 
0 191 174 154 0 0 192 164 0 0 225 225 229 191 229 233 238 228 230 234 238 117 0 0 0 0 205 144 0 0 
0 180 168 0 0 0 237 234 217 203 228 228 229 192 215 230 229 225 229 241 155 0 0 0 0 242 247 208 102 0 
0 168 0 0 0 241 241 233 231 231 231 228 227 206 182 180 186 195 214 184 107 0 0 241 235 239 241 238 149 0 
0 0 0 0 0 0 214 239 233 231 233 220 187 175 157 0 0 0 0 0 0 0 237 229 234 237 239 203 162 0 
149 0 0 0 208 193 161 0 0 245 226 190 168 0 0 0 0 0 0 0 0 229 228 232 233 234 223 201 181 166 
0 0 0 252 247 245 249 232 138 0 0 175 168 0 0 0 0 0 0 0 0 0 225 227 228 225 229 235 242 165 
0 0 0 242 241 241 243 245 254 183 174 168 0 0 0 0 0 0 0 0 0 0 0 220 218 223 227 231 240 166 
0 0 0 253 247 244 244 244 248 231 179 172 146 0 0 0 0 0 0 0 0 0 219 220 222 225 229 232 243 154 
0 0 0 0 0 239 248 249 251 212 170 0 0 0 0 0 0 0 0 0 0 0 0 221 225 224 228 226 155 0 
0 0 0 0 0 0 0 0 0 0 0 166 0 0 0 0 0 0 0 0 0 0 211 214 221 225 218 138 0 0 
0 0 0 0 0 0 0 0 196 193 167 0 0 0 0 0 0 0 0 0 0 0 217 215 218 222 230 237 210 135 
0 0 0 0 0 0 240 238 230 222 179 157 0 0 0 0 0 0 0 0 0 0 222 222 226 228 229 233 245 185 
122 0 0 0 0 238 235 236 226 231 210 177 159 0 0 0 0 0 0 0 0 0 0 216 221 227 228 229 241 185 
121 0 0 0 235 235 234 230 232 231 230 234 142 0 0 0 0 0 0 0 242 220 168 0 0 230 228 229 236 149 
0 0 0 0 234 235 232 234 230 222 236 246 133 0 198 125 0 203 221 215 221 240 245 198 207 229 226 225 230 157 
0 0 0 0 237 234 228 228 222 234 239 209 229 229 241 109 0 235 235 228 221 225 238 245 233 226 226 221 222 216 
132 0 0 0 0 0 0 0 231 235 235 216 233 231 241 141 0 0 236 236 231 226 228 238 242 230 227 225 219 220 
138 0 0 0 0 0 0 0 232 243 202 229 229 234 242 142 0 0 240 236 238 232 226 229 242 238 226 225 221 219 
143 0 0 0 0 0 0 244 243 226 158 0 233 236 243 133 0 0 238 238 240 230 179 227 233 196 227 226 225 223 
146 0 0 0 0 0 0 0 188 97 0 0 233 237 251 106 0 0 243 240 240 239 214 216 217 109 0 0 233 224 
150 0 0 0 0 0 0 0 0 0 0 236 235 242 231 75 0 0 0 243 238 241 218 213 216 210 149 0 0 192 
155 0 0 0 0 0 0 0 0 0 0 239 237 254 125 0 0 0 0 249 238 230 218 217 213 219 230 158 0 0 
0 0 0 0 0 0 0 0 0 0 0 0 224 182 81 0 0 0 0 0 225 222 222 224 223 220 226 220 173 144 
0 0 0 0 0 0 0 0 0 0 0 0 0 0 0 0 0 0 0 0 225 227 230 228 227 227 227 190 165 0 
0 0 0 0 0 0 0 0 0 0 0 0 0 0 0 0 0 0 0 226 221 222 227 231 234 233 222 171 0 0 
0 0 0 0 0 0 0 0 0 0 0 0 0 0 0 0 0 0 0 227 220 220 222 226 229 233 209 164 0 0 
0 0 0 0 0 0 0 0 0 0 0 0 0 0 0 0 0 0 0 0 230 227 225 230 235 235 167 0 0 0 
0 0 0 0 0 0 0 0 0 0 0 0 0 0 0 0 0 0 0 0 0 0 198 195 170 0 0 0 0 0 
0 